<?xml version="1.0" encoding="utf-8"?>
<!-- Generator: Adobe Illustrator 23.0.5, SVG Export Plug-In . SVG Version: 6.00 Build 0)  -->
<svg version="1.1" id="Layer_1" xmlns="http://www.w3.org/2000/svg" xmlns:xlink="http://www.w3.org/1999/xlink" x="0px" y="0px"
	 viewBox="0 0 200 30" style="enable-background:new 0 0 200 30;" xml:space="preserve">
<style type="text/css">
	.st0{fill:#DEB703;}
</style>
<g>
	<path class="st0" d="M26.04,4.91c2.15,1.11,3.74,2.71,4.75,4.8h-4.2c-0.76-1.24-1.83-2.19-3.21-2.84c-1.37-0.65-2.94-0.98-4.7-0.98
		c-1.88,0-3.58,0.36-5.1,1.09c-1.51,0.73-2.7,1.77-3.55,3.12c-0.85,1.35-1.28,2.9-1.28,4.67s0.43,3.32,1.28,4.67
		c0.85,1.35,2.04,2.39,3.55,3.13c1.51,0.74,3.21,1.11,5.1,1.11c1.76,0,3.32-0.33,4.7-1c1.38-0.66,2.44-1.62,3.21-2.86h4.2
		c-1.02,2.09-2.6,3.69-4.75,4.8c-2.15,1.11-4.6,1.67-7.35,1.67c-2.47,0-4.73-0.5-6.8-1.49S8.2,22.45,7.01,20.7
		c-1.2-1.75-1.79-3.73-1.79-5.92c0-2.22,0.6-4.2,1.79-5.96c1.2-1.75,2.83-3.12,4.89-4.1c2.06-0.98,4.33-1.47,6.8-1.47
		C21.44,3.25,23.89,3.8,26.04,4.91z"/>
	<path class="st0" d="M55.14,4.72c2.05,0.98,3.67,2.34,4.87,4.1c1.2,1.75,1.79,3.74,1.79,5.96c0,2.2-0.6,4.18-1.79,5.94
		c-1.2,1.76-2.82,3.14-4.87,4.13c-2.05,0.99-4.31,1.49-6.78,1.49c-2.47,0-4.73-0.5-6.8-1.49c-2.06-0.99-3.69-2.37-4.89-4.13
		c-1.2-1.76-1.79-3.74-1.79-5.94c0-2.22,0.6-4.2,1.79-5.96c1.2-1.75,2.83-3.12,4.89-4.1c2.06-0.98,4.33-1.47,6.8-1.47
		C50.83,3.25,53.09,3.74,55.14,4.72z M43.26,6.99c-1.51,0.73-2.71,1.77-3.57,3.12c-0.87,1.35-1.3,2.9-1.3,4.67s0.43,3.32,1.3,4.67
		c0.87,1.35,2.06,2.39,3.57,3.13c1.51,0.74,3.21,1.11,5.1,1.11c1.88,0,3.58-0.37,5.08-1.11c1.5-0.74,2.68-1.78,3.53-3.13
		c0.85-1.35,1.28-2.91,1.28-4.67s-0.43-3.32-1.28-4.67c-0.85-1.35-2.03-2.39-3.53-3.12c-1.5-0.73-3.19-1.09-5.08-1.09
		C46.48,5.89,44.78,6.26,43.26,6.99z"/>
	<path class="st0" d="M86.62,20.92c-1.12,1.69-2.72,2.97-4.79,3.85c-2.08,0.88-4.52,1.32-7.35,1.32h-8.36V3.48h8.36
		c2.83,0,5.28,0.46,7.35,1.39c2.07,0.93,3.67,2.24,4.79,3.95c1.12,1.71,1.68,3.74,1.68,6.09C88.3,17.23,87.74,19.24,86.62,20.92z
		 M82.12,21.46c1.76-1.57,2.63-3.75,2.63-6.56c0-2.81-0.88-4.99-2.63-6.56c-1.76-1.57-4.3-2.35-7.64-2.35h-4.89v17.82h4.89
		C77.81,23.81,80.36,23.03,82.12,21.46z"/>
	<path class="st0" d="M96.17,5.83v7.7h9.39v2.32h-9.39v7.9h10.54v2.35H92.69V3.48h14.01v2.35H96.17z"/>
	<path d="M138.97,3.48V26.1h-3.51V9.61L126.6,26.1h-2.25l-8.9-16.48V26.1h-3.47V3.48h3.55l9.97,18.54l9.93-18.54H138.97z"/>
	<path d="M160.89,21.14h-11.76l-2.06,4.96h-3.55l9.62-22.62h3.82l9.58,22.62h-3.59L160.89,21.14z M159.9,18.79L155.01,7.1
		l-4.89,11.68H159.9z"/>
	<path d="M192.01,26.1h-3.48L174.56,8.15V26.1h-3.47V3.48h3.47l13.97,17.95V3.48h3.48V26.1z"/>
</g>
<g>
</g>
<g>
</g>
<g>
</g>
<g>
</g>
<g>
</g>
</svg>
