<?xml version="1.0" encoding="utf-8"?>
<!-- Generator: Adobe Illustrator 23.0.5, SVG Export Plug-In . SVG Version: 6.00 Build 0)  -->
<svg version="1.1" id="Layer_1" xmlns="http://www.w3.org/2000/svg" xmlns:xlink="http://www.w3.org/1999/xlink" x="0px" y="0px"
	 viewBox="0 0 100 100" style="enable-background:new 0 0 100 100;" xml:space="preserve">
<style type="text/css">
	.st0{fill:#DEB703;}
</style>
<g>
	<path class="st0" d="M39.77,32.83c1.62,1.41,2.8,3.4,3.54,5.98h-3.86c-0.51-1.34-1.21-2.35-2.11-3.04
		c-0.9-0.68-1.94-1.03-3.13-1.03c-1.3,0-2.45,0.4-3.47,1.2c-1.01,0.8-1.81,1.94-2.38,3.41c-0.57,1.47-0.86,3.17-0.86,5.11
		s0.29,3.64,0.86,5.13c0.57,1.48,1.37,2.63,2.38,3.42c1.01,0.8,2.17,1.2,3.47,1.2c1.18,0,2.23-0.34,3.13-1.03
		c0.9-0.68,1.61-1.7,2.11-3.04h3.86c-0.73,2.58-1.91,4.57-3.54,5.96c-1.63,1.39-3.48,2.09-5.56,2.09c-1.84,0-3.52-0.59-5.04-1.76
		c-1.52-1.17-2.73-2.81-3.62-4.9c-0.89-2.09-1.34-4.45-1.34-7.08c0-2.63,0.45-4.99,1.34-7.08c0.89-2.09,2.1-3.72,3.63-4.9
		c1.53-1.17,3.21-1.76,5.03-1.76C36.29,30.72,38.15,31.42,39.77,32.83z"/>
	<path d="M74.72,31.07v26.9h-3.21V39.54l-5.97,18.42h-2.22l-6-18.42v18.42H54.1v-26.9h3.46l6.88,21.09l6.85-21.09H74.72z"/>
</g>
<g>
</g>
<g>
</g>
<g>
</g>
<g>
</g>
<g>
</g>
</svg>
