<?xml version="1.0" encoding="utf-8"?>
<!-- Generator: Adobe Illustrator 23.0.5, SVG Export Plug-In . SVG Version: 6.00 Build 0)  -->
<svg version="1.1" id="Layer_1" xmlns="http://www.w3.org/2000/svg" xmlns:xlink="http://www.w3.org/1999/xlink" x="0px" y="0px"
	 viewBox="0 0 100 100" style="enable-background:new 0 0 100 100;" xml:space="preserve">
<style type="text/css">
	.st0{fill:#DEB703;}
</style>
<g>
	<path class="st0" d="M31.18,25.73c3.13,2.3,5.4,5.56,6.82,9.78h-7.44c-0.98-2.19-2.33-3.85-4.07-4.97
		c-1.74-1.12-3.75-1.68-6.03-1.68c-2.5,0-4.72,0.66-6.68,1.96c-1.96,1.31-3.48,3.17-4.59,5.57c-1.1,2.41-1.66,5.19-1.66,8.36
		s0.55,5.96,1.66,8.39c1.1,2.43,2.63,4.3,4.59,5.6c1.96,1.31,4.18,1.96,6.68,1.96c2.28,0,4.29-0.56,6.03-1.68
		c1.74-1.12,3.1-2.78,4.07-4.97H38c-1.41,4.22-3.68,7.47-6.82,9.75c-3.13,2.28-6.71,3.42-10.73,3.42c-3.55,0-6.79-0.96-9.72-2.88
		s-5.26-4.59-6.98-8.01c-1.72-3.42-2.58-7.28-2.58-11.59c0-4.31,0.86-8.17,2.58-11.59c1.72-3.42,4.05-6.09,7.01-8.01
		c2.95-1.92,6.18-2.88,9.69-2.88C24.47,22.28,28.05,23.43,31.18,25.73z"/>
	<path d="M98.55,22.85v44.01h-6.19V36.72L80.84,66.86h-4.29L64.99,36.72v30.14H58.8V22.85h6.68l13.25,34.51l13.2-34.51H98.55z"/>
</g>
<g>
</g>
<g>
</g>
<g>
</g>
<g>
</g>
<g>
</g>
</svg>
